<svg xmlns="http://www.w3.org/2000/svg" style="display: none;">

    <symbol id="apple" viewBox="0 0 17 20">
        <path fill-rule="evenodd" clip-rule="evenodd" d="M5 20c-2.48 0-5-5.36-5-9 0-4.922 3.325-6 5-6 1.833 0 2.276 1 3.5 1 1.225 0 1.666-1 3.5-1 1.05 0 2.75.425 3.87 1.956-1.4.695-2.37 2.125-2.37 3.794 0 1.846 1.184 3.4 2.826 3.988C15.412 17.488 13.696 20 12 20c-1.46 0-1.816-.99-3.5-1-1.684.01-2.042 1-3.5 1zM8 4.75c2.256-.117 4.055-1.965 4.055-4.25 0-.173-.035-.332-.055-.5-2.257.117-4.05 1.965-4.05 4.25 0 .173.03.332.05.5z"/>
    </symbol>
    <symbol id="android" viewBox="0 0 20 22">
        <path fill-rule="evenodd" clip-rule="evenodd" d="M1.5 8C2.33 8 3 8.67 3 9.5v6c0 .83-.67 1.5-1.5 1.5S0 16.33 0 15.5v-6C0 8.67.67 8 1.5 8zM17 9.5v6c0 .83.67 1.5 1.5 1.5s1.5-.67 1.5-1.5v-6c0-.83-.67-1.5-1.5-1.5S17 8.67 17 9.5zM4 8v8c0 1.248.75 2 2 2h.01v2.5c0 .83.67 1.5 1.5 1.5s1.5-.67 1.5-1.5V18H11v2.5c0 .83.67 1.5 1.5 1.5s1.5-.67 1.5-1.5V18c1.248 0 1.998-.752 1.998-2V8h-12zm9.444-5.907l.533-1.6c.065-.195-.04-.408-.237-.474-.197-.067-.408.04-.475.236l-.478 1.434C11.954 1.25 11.007 1 10 1s-1.957.25-2.79.69L6.73.257C6.667.06 6.455-.046 6.258.02c-.196.065-.303.278-.237.474l.533 1.6C5.01 3.178 4 4.97 4 7h12c0-2.03-1.013-3.82-2.556-4.907zM7.5 5c-.276 0-.5-.224-.5-.5s.224-.5.5-.5.5.224.5.5-.224.5-.5.5zm5 0c-.276 0-.5-.224-.5-.5s.224-.5.5-.5.5.224.5.5-.224.5-.5.5z"/>
    </symbol>
    <symbol id="windows" viewBox="0 0 16 17">
        <path fill-rule="evenodd" clip-rule="evenodd" d="M6 1.87V8H0V3l6-1.13zM16 0v8H7V1.69L16 0zM0 14V9h6v6.13L0 14zm7 1.31V9h9v8l-9-1.69z"/>
    </symbol>

    <symbol id="fb" viewBox="0 0 20 20">
        <path fill-rule="evenodd" clip-rule="evenodd" d="M8.495 19.887C3.685 19.16 0 15.01 0 10 0 4.477 4.477 0 10 0s10 4.477 10 10-4.477 10-10 10c-.512 0-1.014-.038-1.505-.113-.167-.025-.332-.054-.495-.088V11H6V9h2V7c0-1.65 1.06-2.976 3-3 .77-.01 2 0 2 0v2h-1.5c-.646 0-1 .396-1 1v2H13l-.5 2h-2v8.975c-.167.007-.33.025-.5.025-.512 0-1.015-.038-1.505-.113z"/>
    </symbol>
    <symbol id="vk" viewBox="0 0 20 20">
        <path fill-rule="evenodd" clip-rule="evenodd" d="M10 20c5.523 0 10-4.477 10-10S15.523 0 10 0 0 4.477 0 10s4.477 10 10 10zm2.5-10.5c1.125-.39 1.5-1.188 1.5-2 0-1.377-.81-2.5-3.5-2.5h-4v10h4c3.14 0 4-1.594 4-3 0-1.113-.497-2.14-2-2.5zM9 6.75h1.4c.622 0 1.1.504 1.1 1.125 0 .62-.48 1.125-1.1 1.125H9V6.75zM9 13v-2.5h1.75c.69 0 1.25.56 1.25 1.25S11.44 13 10.75 13H9z"/>
    </symbol>
    <symbol id="twitter" viewBox="0 0 20 20">
        <path fill-rule="evenodd" clip-rule="evenodd" d="M10 20c5.523 0 10-4.477 10-10S15.523 0 10 0 0 4.477 0 10s4.477 10 10 10zm6-13.006c-.453.297-.79.444-1.25.5.605-.375.984-.797 1.25-1.5-.5.39-.938.625-1.6.75-.412-.44-1.002-.75-1.65-.75-1.367 0-2.25.845-2.25 2.25 0 .178.03.516.1.75-1.883-.095-3.537-.86-4.85-2.5-.484.875-.25 2.266.75 3-.39 0-.703-.094-1-.25.125 1 .953 1.97 2 2.25-.422.11-.846.098-1.25 0 .36.812 1.39 1.5 2.25 1.5-.797.703-2 1-3.5 1 .828.61 2.22 1 3.5 1 4.258 0 6.5-2.99 6.5-6.75.457-.235.814-.764 1-1.25z"/>
    </symbol>
    <symbol id="ok" viewBox="0 0 20 20">
        <path fill-rule="evenodd" clip-rule="evenodd" d="M10 20c5.523 0 10-4.477 10-10S15.523 0 10 0 0 4.477 0 10s4.477 10 10 10zm0-9.5c-1.93 0-3.5-1.57-3.5-3.5S8.07 3.5 10 3.5c1.932 0 3.5 1.57 3.5 3.5s-1.568 3.5-3.5 3.5zm0-5c-.826 0-1.5.673-1.5 1.5s.674 1.5 1.5 1.5c.827 0 1.5-.673 1.5-1.5s-.673-1.5-1.5-1.5zm.938 7.926c.965-.15 1.873-.53 2.666-1.127.44-.334.527-.96.195-1.4-.333-.44-.958-.53-1.4-.197-.693.522-1.522.8-2.397.8-.906 0-1.71-.268-2.39-.792-.437-.34-1.064-.255-1.402.182-.337.438-.257 1.063.18 1.4.793.613 1.69.99 2.673 1.14L6.58 15.688c-.408.37-.438 1.003-.067 1.41.372.41 1.006.44 1.413.068L10 15.25l2.077 1.916c.19.174.433.26.673.26.27 0 .543-.11.74-.326.37-.41.34-1.043-.067-1.414l-2.485-2.26z"/>
    </symbol>
    <symbol id="instagram" viewBox="0 0 20 20">
        <path fill-rule="evenodd" clip-rule="evenodd" d="M10 20c5.523 0 10-4.477 10-10S15.523 0 10 0 0 4.477 0 10s4.477 10 10 10zm3-10c0 1.656-1.344 3-3 3s-3-1.344-3-3c0-.353.072-.686.184-1H4v5c0 1.22.78 2 2 2h8c1.22 0 2-.78 2-2V9h-3.184c.112.314.184.647.184 1zm1-6H6c-1.22 0-2 .78-2 2v2h3.78c.548-.61 1.335-1 2.22-1 .885 0 1.672.39 2.22 1H16V6c0-1.22-.78-2-2-2zm-1 3c-.553 0-1-.448-1-1s.447-1 1-1c.553 0 1 .448 1 1s-.447 1-1 1z"/>
    </symbol>



</svg>