<svg xmlns="http://www.w3.org/2000/svg" width="175" height="21" viewBox="-0.144 0 175 21"><path fill="#333333" d="M5.57.416c4.568 0 6.824 2.713 6.824 5.94 0 2.885-1.913 5.255-5.112 5.884l6.197 8.51h-2.8l-6.026-8.338H2.342v8.34H0V.415h5.57zM2.34 10.183h3.2c2.683 0 4.482-1.514 4.482-3.827 0-2.285-1.856-3.713-4.512-3.713h-3.17v7.54zM26.06.416l8.725 20.334h-2.477l-1.954-4.74h-9.936l-1.926 4.74h-2.477L24.712.416h1.348zm.468 6.426c-.385-.914-.908-2.11-1.046-2.596h-.138c-.165.57-.606 1.596-1.046 2.624l-2.945 6.912h8.064l-2.89-6.94zM54.486.416h1.37V20.75h-2.34V8.26c0-1.228.056-2.685.085-3.256h-.17c-.343.428-1.143 1.37-1.8 2.028l-4.7 5.042-4.7-5.042c-.656-.657-1.455-1.6-1.798-2.028h-.2c.03.57.114 2.028.114 3.256v12.49h-2.37V.416h1.4l7.555 8.317L54.487.416zM67.083.416c4.427 0 6.426 2.685 6.426 5.57 0 1.74-.972 3.51-2.372 4.226 1.856.77 3.142 2.884 3.142 4.798 0 3.74-2.97 5.74-6.454 5.74h-6.724V.417h5.98zm-3.64 8.91h3.897c2.228 0 3.856-1.028 3.856-3.34 0-2.172-1.77-3.343-3.94-3.343h-3.812v6.683zm0 9.197h4.268c2.343 0 4.17-1.143 4.17-3.57 0-2.285-1.77-3.398-4.37-3.398h-4.067v6.968zM81.17 18.523h9.19v2.227H78.828V.416h2.342v18.107zM93.9.416h11.25v2.227h-8.91V8.87h8.654v2.284H96.24v7.368h8.91v2.227H93.9V.415zM115.535.416c4.57 0 6.826 2.713 6.826 5.94 0 2.885-1.913 5.255-5.11 5.884l6.196 8.51h-2.8l-6.025-8.338h-2.312v8.34h-2.342V.415h5.57zm-3.227 9.767h3.2c2.684 0 4.483-1.514 4.483-3.827 0-2.285-1.856-3.713-4.51-3.713h-3.17l-.002 7.54zM165.34 17.345c-.052-.134-.09-.276-.103-.425-.022-.054-.042-.11-.068-.162-.043-.084-.088-.167-.134-.248-.036-.06-.094-.152-.105-.167-.14-.202-.282-.402-.438-.592-.077-.093-.542-.584-.186-.244-.097-.092-.18-.193-.255-.298-1.23 2.338-3.528 3.56-5.788 3.565-4.674-.008-7.71-3.774-7.71-8.253 0-4.512 3.228-8.253 7.912-8.253 1.8 0 3.484.628 4.912 1.685V1.295C161.862.467 160.206.01 158.464.01c-5.712 0-10.31 4.626-10.31 10.51 0 5.86 4.382 10.445 10.062 10.478l.036.002H158.278c2.834-.01 5.527-1.352 7.062-3.655z"/><path fill="#333333" d="M168.557 8.218c3.59 0 6.156 2.87 6.156 6.405 0 3.478-2.567 6.377-6.156 6.377s-6.156-2.9-6.156-6.322c0-3.782 2.734-6.46 6.157-6.46zm0 10.74c2.153 0 3.865-1.796 3.865-4.363 0-2.595-1.877-4.334-3.865-4.334-2.07 0-3.865 1.768-3.865 4.39 0 2.375 1.657 4.307 3.865 4.307zM143.372 20.68l-3.228-3.4c-1.857 2.486-3.913 3.714-6.14 3.714-1.83 0-3.343-.6-4.57-1.77-1.23-1.2-1.83-2.63-1.83-4.314 0-2.713 1.63-4.2 4.714-6.112-1.485-1.514-2.228-2.942-2.228-4.256 0-1.342.486-2.428 1.428-3.256C132.46.428 133.632 0 134.974 0s2.485.428 3.428 1.285c.97.857 1.457 1.942 1.457 3.285 0 1.742-1.258 3.342-3.8 4.798l3.913 4.228 2.057-3.285h2.77l-3.2 5.028 5 5.34-3.228.002zm-9.474-10.29c-2.7 1.32-4.05 2.942-4.05 4.892 0 .96.42 1.8 1.26 2.55.84.75 1.77 1.11 2.76 1.11.69 0 1.38-.21 2.07-.6.69-.42 1.172-.81 1.502-1.17.33-.39.78-.9 1.29-1.59l-4.832-5.19zm.507-2.595c.84-.39 1.29-.66 2.04-1.23.75-.6 1.17-1.32 1.17-2.16 0-1.44-1.14-2.432-2.67-2.432s-2.64 1.05-2.64 2.34c0 .96.69 2.13 2.1 3.482z"/></svg>